<svg width="1366" height="217" viewBox="0 0 1366 217" fill="none" xmlns="http://www.w3.org/2000/svg">
<path d="M106.889 210C40.9043 210 0 169.397 0 107C0 44.6029 40.9043 4 106.889 4C168.991 4 209 35.0493 209 85.8029V90.2811H159.139V85.8029C159.139 59.5304 144.21 46.9913 107.784 46.9913C63.8943 46.9913 47.4729 62.5159 47.4729 107C47.4729 151.484 63.8943 167.009 107.784 167.009C144.21 167.009 159.139 154.47 159.139 128.197V123.719H209V128.197C209 178.951 169.29 210 106.889 210Z" fill="#0A0A24"/>
<path d="M1110.88 202.031H1153.48V12H1108.04L1039.87 101.91L1013.74 141.902H1010.62L1012.6 103.612V12H970.001V202.031H1015.44L1085.6 111.27L1109.74 75.5326H1112.58L1110.88 110.419V202.031Z" fill="#0A0A24"/>
<path d="M1295.3 202.031H1252.83V50.2898H1182.33V12H1365.81V50.2898H1295.3V202.031Z" fill="#0A0A24"/>
<path d="M776.557 202H818.557V12H776.557V202Z" fill="#0A0A24"/>
<path d="M855.125 23.8584C881.395 23.8584 902.685 31.1938 917.434 44.3877C932.206 57.603 940.213 76.5186 940.213 99.2393C940.213 121.96 932.206 140.876 917.434 154.091C902.685 167.285 881.395 174.62 855.125 174.62C852.734 174.62 820.312 174.554 817.944 174.423L816.997 174.371L817 173.422L817.11 140.806L817.114 139.752L818.165 139.811C820.352 139.931 852.644 139.992 855.125 139.992C871.783 139.992 882.778 137.224 889.65 131.016C896.468 124.857 899.69 114.882 899.69 99.2393C899.69 83.5968 896.468 73.6211 889.65 67.4629C882.778 61.2551 871.783 58.4873 855.125 58.4873C852.643 58.4873 820.352 58.5474 818.165 58.668L817.114 58.7266L817.11 57.6729L817 25.0566L816.997 24.1074L817.944 24.0557C820.312 23.9243 852.734 23.8584 855.125 23.8584Z" fill="#0A0A24" stroke="#0A0A24" stroke-width="2"/>
<path d="M740.088 24C713.818 24 692.528 31.3354 677.779 44.5293C663.007 57.7446 655 76.6602 655 99.3809C655 122.102 663.007 141.017 677.779 154.232C692.528 167.426 713.818 174.762 740.088 174.762C742.479 174.762 774.901 174.696 777.269 174.564L778.216 174.513L778.213 173.563L778.103 140.947L778.099 139.894L777.048 139.952C774.86 140.073 742.569 140.134 740.088 140.134C723.43 140.134 712.435 137.365 705.562 131.157C698.745 124.999 695.522 115.023 695.522 99.3809C695.522 83.7384 698.745 73.7627 705.562 67.6045C712.435 61.3967 723.43 58.6289 740.088 58.6289C742.57 58.6289 774.861 58.689 777.048 58.8096L778.099 58.8682L778.103 57.8145L778.213 25.1982L778.216 24.249L777.269 24.1973C774.901 24.0659 742.479 24 740.088 24Z" fill="#0A0A24" stroke="#0A0A24" stroke-width="2"/>
<path fill-rule="evenodd" clip-rule="evenodd" d="M472.315 0C516 0.662334 549.042 18.3247 567.141 47.9756V14.876C583.819 40.177 592.82 71.7406 592.82 108.044C592.82 144.346 583.818 175.907 567.141 201.208V168.518C549.042 198.169 516.001 215.833 472.315 216.495V204.087C460.097 207.721 446.54 209.64 431.802 209.64C431.659 209.64 431.517 209.637 431.375 209.635C431.247 209.637 431.118 209.64 430.989 209.64C418.971 209.64 407.738 208.363 397.376 205.922V216.495C353.691 215.833 320.65 198.169 302.551 168.518V201.208C285.873 175.907 276.871 144.346 276.871 108.044C276.871 71.7406 285.872 40.177 302.551 14.876V47.9756C320.65 18.3248 353.691 0.66232 397.376 0V10.6162C407.738 8.17616 418.971 6.90332 430.989 6.90332C431.124 6.90332 431.26 6.90493 431.395 6.90625C431.53 6.90492 431.666 6.90332 431.802 6.90332C446.54 6.90334 460.097 8.8185 472.315 12.4521V0ZM520.543 61.2627C511.513 50.7764 497.065 45.9992 475.767 45.2725V62.0391C465.777 55.0579 451.462 52.1028 431.882 52.0947V52.1016C431.72 52.1008 431.557 52.0993 431.395 52.0977C431.232 52.0993 431.07 52.1008 430.908 52.1016V52.0947C411.329 52.1028 397.014 55.0572 387.024 62.0381V45.668C369.458 47.138 357.167 51.951 349.148 61.2627V44.8594C337.889 62.0178 331.814 83.4258 331.814 108.046C331.815 132.664 337.891 154.067 349.148 171.225V155.229C357.167 164.542 369.458 169.354 387.024 170.824V154.501C397.014 161.482 411.328 164.439 430.908 164.447V164.438C431.063 164.439 431.219 164.441 431.375 164.443C431.544 164.441 431.713 164.438 431.882 164.438V164.447C451.463 164.439 465.777 161.483 475.767 154.501V171.22C497.065 170.493 511.513 165.716 520.543 155.229V171.225C531.801 154.067 537.877 132.664 537.877 108.046C537.877 83.4258 531.802 62.0178 520.543 44.8594V61.2627Z" fill="#0A0A24"/>
<path d="M266.334 171.225C255.076 154.067 249 132.664 249 108.046C249 83.4259 255.075 62.0187 266.334 44.8604V171.225Z" fill="#0A0A24"/>
<path d="M603.357 44.8604C614.617 62.0187 620.691 83.4258 620.691 108.046C620.691 132.664 614.615 154.067 603.357 171.225V44.8604Z" fill="#0A0A24"/>
</svg>
